<svg xmlns="http://www.w3.org/2000/svg" viewBox="0 0 814.51 1696.35"><defs><style>.cls-1{fill:#040000;}.cls-10,.cls-11,.cls-12,.cls-13,.cls-14,.cls-15,.cls-16,.cls-17,.cls-18,.cls-2,.cls-3,.cls-4,.cls-5,.cls-6,.cls-7,.cls-8,.cls-9{fill:none;stroke:#fff;stroke-linecap:round;stroke-linejoin:round;}.cls-2{stroke-width:1.83px;}.cls-3{stroke-width:1.85px;}.cls-4{stroke-width:1.82px;}.cls-5{stroke-width:1.94px;}.cls-6{stroke-width:1.62px;}.cls-7{stroke-width:1.82px;}.cls-8{stroke-width:1.83px;}.cls-9{stroke-width:1.82px;}.cls-10{stroke-width:1.82px;}.cls-11{stroke-width:2.47px;}.cls-12{stroke-width:1.86px;}.cls-13{stroke-width:1.84px;}.cls-14{stroke-width:1.83px;}.cls-15{stroke-width:1.83px;}.cls-16{stroke-width:2.46px;}.cls-17{stroke-width:1.82px;}.cls-18{stroke-width:1.86px;}</style></defs><g id="图层_1" data-name="图层 1"><rect class="cls-1" width="814.51" height="1696.35"/></g><g id="立春"><line class="cls-2" x1="57.25" y1="92.88" x2="57.25" y2="102.34"/><line class="cls-2" x1="27.11" y1="102.34" x2="86.14" y2="102.34"/><line class="cls-2" x1="26.94" y1="153.15" x2="85.97" y2="153.15"/><line class="cls-2" x1="40.16" y1="102.34" x2="40.16" y2="153.15"/><line class="cls-2" x1="73.35" y1="102.52" x2="73.35" y2="153.33"/><line class="cls-2" x1="95.68" y1="97.53" x2="193.66" y2="97.53"/><line class="cls-2" x1="95.68" y1="104.45" x2="193.66" y2="104.45"/><line class="cls-2" x1="95.68" y1="111.36" x2="193.66" y2="111.36"/><line class="cls-2" x1="144.57" y1="92.97" x2="144.57" y2="117"/><polyline class="cls-2" points="192.33 315.88 192.33 118.44 147.76 118.29 144.57 118.28 97 118.44 97 315.88"/><rect class="cls-2" x="106.27" y="122.13" width="76.8" height="31.98"/><line class="cls-2" x1="107.34" y1="138.12" x2="182.33" y2="138.12"/></g><g id="小暑"><polyline class="cls-3" points="249.11 1119.14 249.11 1181.86 242 1181.87"/><polyline class="cls-3" points="232.46 1131.84 232.46 1181.26 220.88 1181.26"/><polyline class="cls-3" points="265.23 1131.84 265.52 1181.26 276.6 1181.26"/><rect class="cls-3" x="299.91" y="1121.25" width="80.03" height="17.75"/><polyline class="cls-3" points="291.35 1136.98 291.35 1151.37 388.38 1151.37 388.38 1136.98"/><line class="cls-3" x1="339.92" y1="1139" x2="340.01" y2="1163.8"/><polyline class="cls-3" points="338.61 1156.86 291.35 1156.86 291.35 1342.11"/><polyline class="cls-3" points="341.55 1156.86 388.8 1156.86 388.8 1343.47"/><rect class="cls-3" x="300.01" y="1163.8" width="80.03" height="17.75"/><line class="cls-3" x1="300.01" y1="1129.52" x2="379.26" y2="1129.52"/><line class="cls-3" x1="300.4" y1="1172.68" x2="379.65" y2="1172.68"/><line class="cls-3" x1="302.1" y1="1145.14" x2="331.75" y2="1145.14"/><line class="cls-3" x1="347.42" y1="1145.14" x2="379.26" y2="1145.14"/><rect class="cls-4" x="301.25" y="1378.18" width="78.78" height="17.48"/><polyline class="cls-4" points="292.83 1393.66 292.83 1407.82 388.35 1407.82 388.35 1393.66"/><line class="cls-4" x1="340.64" y1="1395.66" x2="340.73" y2="1420.07"/><polyline class="cls-4" points="339.35 1413.23 292.83 1413.23 292.83 1599.35"/><polyline class="cls-4" points="342.24 1413.23 388.77 1413.23 388.76 1600.2"/><rect class="cls-4" x="301.35" y="1420.07" width="78.78" height="17.48"/><line class="cls-4" x1="301.35" y1="1386.32" x2="379.37" y2="1386.32"/><line class="cls-4" x1="301.73" y1="1428.81" x2="379.75" y2="1428.81"/><line class="cls-4" x1="303.41" y1="1401.7" x2="332.59" y2="1401.7"/><line class="cls-4" x1="348.03" y1="1401.7" x2="379.37" y2="1401.7"/><polyline class="cls-4" points="224.87 1599.02 224.87 1382.34 280.5 1382.34 280.5 1599.35"/><line class="cls-4" x1="252.77" y1="1375.87" x2="252.77" y2="1381.65"/><line class="cls-4" x1="236.27" y1="1382.34" x2="236.27" y2="1437.24"/><line class="cls-4" x1="269.11" y1="1382.34" x2="269.11" y2="1437.24"/><line class="cls-5" x1="422.06" y1="351.1" x2="422.06" y2="412.68"/><path class="cls-5" d="M420.56,363.63"/><path class="cls-5" d="M445.59,363.88"/><polyline class="cls-6" points="442.54 351.4 442.54 394.05 420.84 394.11"/><line class="cls-5" x1="420.56" y1="363.63" x2="442.54" y2="363.63"/><polyline class="cls-5" points="422.06 412.88 480.21 412.88 480.21 573.27"/><line class="cls-5" x1="457.6" y1="351.44" x2="457.6" y2="407.88"/><line class="cls-5" x1="457.6" y1="377.31" x2="477.52" y2="377.31"/><rect class="cls-7" x="495.94" y="353.83" width="78.79" height="17.48"/><polyline class="cls-7" points="487.52 369.31 487.52 383.48 583.05 383.48 583.05 369.31"/><line class="cls-7" x1="535.33" y1="371.31" x2="535.42" y2="395.72"/><polyline class="cls-7" points="534.04 388.89 487.52 388.89 487.52 574.06"/><polyline class="cls-7" points="536.94 388.89 583.47 388.89 583.46 572.62"/><rect class="cls-7" x="496.04" y="395.72" width="78.79" height="17.48"/><line class="cls-7" x1="496.04" y1="361.97" x2="574.07" y2="361.97"/><line class="cls-7" x1="496.42" y1="404.46" x2="574.45" y2="404.46"/><line class="cls-7" x1="498.1" y1="377.35" x2="527.29" y2="377.35"/><line class="cls-7" x1="542.72" y1="377.35" x2="574.07" y2="377.35"/></g><g id="立夏"><line class="cls-8" x1="251.75" y1="95.73" x2="251.75" y2="105.17"/><line class="cls-8" x1="221.69" y1="105.17" x2="280.56" y2="105.17"/><line class="cls-8" x1="221.52" y1="155.84" x2="280.39" y2="155.84"/><line class="cls-8" x1="234.71" y1="105.17" x2="234.71" y2="155.84"/><line class="cls-8" x1="267.8" y1="105.35" x2="267.8" y2="156.02"/><line class="cls-9" x1="296.07" y1="93.14" x2="393.97" y2="93.14"/><polygon class="cls-9" points="307.5 102.91 383.55 102.91 383.55 138.1 307.5 138.1 307.5 104.63 307.5 102.91"/><line class="cls-9" x1="307.81" y1="113.64" x2="381.1" y2="113.54"/><line class="cls-9" x1="307.81" y1="126.48" x2="380.87" y2="126.48"/><line class="cls-9" x1="345.65" y1="94.36" x2="345.65" y2="102.31"/><polyline class="cls-9" points="296.07 154.41 392.29 154.41 392.29 138.1"/><line class="cls-9" x1="296.07" y1="144.42" x2="392.29" y2="144.42"/><polyline class="cls-9" points="317.94 139.44 317.94 164.66 392.29 164.66 392.29 315.62"/></g><g id="立秋"><line class="cls-10" x1="452.51" y1="97.28" x2="452.51" y2="106.69"/><line class="cls-10" x1="422.5" y1="106.69" x2="481.27" y2="106.69"/><line class="cls-10" x1="422.33" y1="157.28" x2="481.1" y2="157.28"/><line class="cls-10" x1="435.5" y1="106.69" x2="435.5" y2="157.28"/><line class="cls-10" x1="468.53" y1="106.87" x2="468.53" y2="157.46"/><polyline class="cls-11" points="496.86 94.46 515.38 94.46 515.38 314.94"/><polyline class="cls-11" points="496.86 108.47 496.86 147.19 532.21 147.19 532.21 94.46"/><polyline class="cls-11" points="500.55 314.94 500.55 158.62 530.44 158.62 530.82 314.94"/><polyline class="cls-11" points="536.91 154.03 536.91 145.98 589.63 145.98 589.63 154.03"/><line class="cls-11" x1="563.27" y1="93.82" x2="563.27" y2="144.71"/><line class="cls-11" x1="542.72" y1="100.44" x2="542.72" y2="140.94"/><line class="cls-11" x1="582.79" y1="100.63" x2="582.79" y2="141.13"/></g><g id="立冬"><line class="cls-12" x1="648.77" y1="93.69" x2="648.77" y2="103.3"/><line class="cls-12" x1="618.12" y1="103.3" x2="678.14" y2="103.3"/><line class="cls-12" x1="617.95" y1="154.97" x2="677.97" y2="154.97"/><line class="cls-12" x1="631.39" y1="103.3" x2="631.39" y2="154.97"/><line class="cls-12" x1="665.13" y1="103.48" x2="665.13" y2="155.15"/><polyline class="cls-12" points="790.85 92.97 790.85 112.88 692.76 112.88 692.76 158.05"/><line class="cls-12" x1="692.36" y1="95.95" x2="790.45" y2="95.95"/><polyline class="cls-12" points="716.78 129.07 790.85 129.07 790.85 315.88"/><line class="cls-12" x1="716.78" y1="92.97" x2="716.78" y2="129.07"/><line class="cls-12" x1="704.65" y1="141.24" x2="779.55" y2="141.24"/><line class="cls-12" x1="704.98" y1="155.73" x2="780.66" y2="155.73"/></g><g id="春分"><line class="cls-13" x1="25.21" y1="867.74" x2="123.3" y2="867.74"/><line class="cls-13" x1="25.21" y1="874.66" x2="123.3" y2="874.66"/><line class="cls-13" x1="25.21" y1="881.58" x2="123.3" y2="881.58"/><line class="cls-13" x1="74.16" y1="863.17" x2="74.16" y2="887.23"/><polyline class="cls-13" points="121.98 1086.32 121.98 888.67 77.35 888.51 74.17 888.5 26.54 888.67 26.54 1086.32"/><rect class="cls-13" x="35.82" y="892.37" width="76.88" height="32.02"/><line class="cls-13" x1="36.89" y1="908.37" x2="111.96" y2="908.37"/><line class="cls-13" x1="137.09" y1="881.82" x2="137.09" y2="1086.32"/><path class="cls-13" d="M143.15,881.58h-6.1"/><path class="cls-13" d="M143.15,862.91v18.67"/><line class="cls-13" x1="137.09" y1="862.91" x2="143.15" y2="862.91"/><polyline class="cls-13" points="182.63 923.16 182.63 901.8 146.73 901.8 146.73 885 147.19 885 182.63 885"/><polyline class="cls-13" points="158.27 902.77 158.27 920.95 146.73 920.95"/><line class="cls-13" x1="192.66" y1="881.82" x2="192.66" y2="1086.32"/><path class="cls-13" d="M186.61,881.58h6.1"/><path class="cls-13" d="M186.61,862.91v18.67"/><line class="cls-13" x1="192.66" y1="862.91" x2="186.61" y2="862.91"/></g><g id="夏至"><line class="cls-14" x1="223.09" y1="863.04" x2="321.34" y2="863.04"/><polygon class="cls-14" points="234.55 872.85 310.89 872.85 310.89 908.16 234.55 908.16 234.55 874.57 234.55 872.85"/><line class="cls-14" x1="234.87" y1="883.62" x2="308.43" y2="883.51"/><line class="cls-14" x1="234.87" y1="896.5" x2="308.19" y2="896.5"/><line class="cls-14" x1="272.85" y1="864.27" x2="272.85" y2="872.24"/><polyline class="cls-14" points="223.09 924.54 319.65 924.54 319.65 908.16"/><line class="cls-14" x1="223.09" y1="914.51" x2="319.65" y2="914.51"/><polyline class="cls-14" points="245.04 909.51 245.04 934.82 319.65 934.82 319.65 1086.32"/><line class="cls-15" x1="333.95" y1="863.2" x2="390.02" y2="863.2"/><polyline class="cls-15" points="340.15 863.85 340.15 886.61 383.93 886.72"/><line class="cls-15" x1="340.15" y1="897.08" x2="383.93" y2="897.08"/><line class="cls-15" x1="333.87" y1="925.05" x2="389.77" y2="925.05"/><line class="cls-15" x1="362.13" y1="886.97" x2="362.13" y2="925.05"/><line class="cls-15" x1="383.93" y1="868.05" x2="383.92" y2="893.96"/></g><g id="秋分"><polyline class="cls-16" points="422.03 864.8 440.45 864.8 440.45 1084.22"/><polyline class="cls-16" points="422.03 878.75 422.03 917.28 457.21 917.28 457.21 864.8"/><polyline class="cls-16" points="425.69 1084.22 425.69 928.66 455.44 928.66 455.82 1084.22"/><polyline class="cls-16" points="461.88 924.09 461.88 916.07 514.34 916.07 514.34 924.09"/><line class="cls-16" x1="488.11" y1="864.17" x2="488.11" y2="914.81"/><line class="cls-16" x1="467.67" y1="870.75" x2="467.67" y2="911.06"/><line class="cls-16" x1="507.54" y1="870.94" x2="507.54" y2="911.25"/><line class="cls-17" x1="529.73" y1="882.68" x2="529.73" y2="1085.06"/><path class="cls-17" d="M535.72,882.45h-6"/><path class="cls-17" d="M535.72,864v18.48"/><line class="cls-17" x1="529.73" y1="863.97" x2="535.72" y2="863.97"/><polyline class="cls-17" points="574.99 920.95 574.99 899.81 539.46 899.81 539.46 883.18 539.91 883.18 574.99 883.18"/><polyline class="cls-17" points="550.88 900.77 550.88 918.76 539.46 918.76"/><line class="cls-17" x1="584.72" y1="882.68" x2="584.72" y2="1085.06"/><path class="cls-17" d="M578.73,882.45h6"/><path class="cls-17" d="M578.73,864v18.48"/><line class="cls-17" x1="584.72" y1="863.97" x2="578.73" y2="863.97"/></g><g id="冬至"><polyline class="cls-18" points="718.53 864.25 718.53 884.09 620.81 884.09 620.81 929.09"/><line class="cls-18" x1="620.41" y1="867.22" x2="718.13" y2="867.22"/><polyline class="cls-18" points="644.74 900.22 718.53 900.22 718.53 1086.32"/><line class="cls-18" x1="644.74" y1="864.25" x2="644.74" y2="900.22"/><line class="cls-18" x1="632.65" y1="912.34" x2="707.27" y2="912.34"/><line class="cls-18" x1="632.98" y1="926.78" x2="708.38" y2="926.78"/><line class="cls-18" x1="731.45" y1="864.25" x2="788.2" y2="864.25"/><polyline class="cls-18" points="737.73 864.91 737.73 887.94 782.03 888.05"/><line class="cls-18" x1="737.73" y1="898.54" x2="782.04" y2="898.54"/><line class="cls-18" x1="731.37" y1="926.84" x2="787.94" y2="926.84"/><line class="cls-18" x1="759.97" y1="888.31" x2="759.97" y2="926.84"/><line class="cls-18" x1="782.03" y1="869.16" x2="782.02" y2="895.39"/></g></svg>